<?xml version="1.0" encoding="UTF-8"?>
<svg width="48px" height="48px" viewBox="0 0 48 48" version="1.1" xmlns="http://www.w3.org/2000/svg" xmlns:xlink="http://www.w3.org/1999/xlink">
    <title>icon-person</title>
    <g id="Symbols" stroke="none" stroke-width="1" fill="none" fill-rule="evenodd">
        <g id="header/defult" transform="translate(-1448.000000, -32.000000)">
            <rect id="bg" x="0" y="0" width="1920" height="112"></rect>
            <g id="icon/person" transform="translate(1448.000000, 32.000000)" fill="#909090">
                <path d="M24,24 C12.411,24 4,31.57 4,42 C4,43.105 4.896,44 6,44 L42,44 C43.104,44 44,43.105 44,42 C44,31.57 35.589,24 24,24 M24,28 C32.639,28 38.888,32.84 39.866,40 L8.134,40 C9.112,32.84 15.361,28 24,28" id="fill"></path>
                <path d="M24,4 C19.582,4 16,7.582 16,12 C16,16.418 19.582,20 24,20 C28.418,20 32,16.418 32,12 C32,7.582 28.418,4 24,4 M24,8 C26.206,8 28,9.794 28,12 C28,14.206 26.206,16 24,16 C21.794,16 20,14.206 20,12 C20,9.794 21.794,8 24,8" id="fill"></path>
            </g>
        </g>
    </g>
</svg>